<?xml version="1.0" standalone="no"?>
<!DOCTYPE svg PUBLIC "-//W3C//DTD SVG 20010904//EN"
 "http://www.w3.org/TR/2001/REC-SVG-20010904/DTD/svg10.dtd">
<svg version="1.0" xmlns="http://www.w3.org/2000/svg"
 width="500.000000pt" height="500.000000pt" viewBox="0 0 500.000000 500.000000"
 preserveAspectRatio="xMidYMid meet">

<g transform="translate(0.000000,500.000000) scale(0.100000,-0.100000)"
fill="#000000" stroke="none">
<path d="M1650 4090 c0 -5 -7 -10 -15 -10 -8 0 -14 -5 -12 -11 1 -7 -15 -13
-38 -15 -22 -2 -74 -11 -115 -19 -180 -37 -335 -43 -250 -9 21 9 25 12 10 9
-14 -2 -37 -5 -52 -5 -19 0 -28 -5 -28 -16 0 -9 22 -107 50 -217 27 -111 51
-212 53 -224 1 -11 9 -28 16 -37 17 -21 7 -46 -19 -46 -14 0 -19 -4 -14 -12 4
-6 3 -8 -3 -5 -6 4 -53 -3 -104 -14 -52 -12 -115 -22 -142 -23 -35 -1 -49 -5
-53 -18 -8 -28 23 -86 58 -108 45 -27 140 -27 205 1 60 25 80 43 105 94 18 34
20 51 15 125 -4 47 -20 139 -36 205 -17 66 -27 123 -23 126 4 4 41 13 82 19
92 15 132 23 238 45 48 10 87 14 92 9 4 -5 20 -47 34 -94 25 -82 32 -180 13
-180 -14 0 -37 -27 -29 -35 4 -5 2 -5 -4 -2 -6 3 -40 -3 -75 -13 -76 -24 -72
-23 -63 -7 6 10 4 10 -7 0 -15 -15 -43 -17 -34 -3 3 6 -1 7 -9 4 -26 -10 -19
-53 13 -85 76 -75 242 -2 271 120 8 34 8 66 0 116 -11 74 -53 239 -72 290 -16
40 -58 73 -58 45z"/>
<path d="M2304 3738 c-6 -9 -6 -9 22 -12 11 -1 21 3 21 9 0 12 -36 15 -43 3z"/>
<path d="M2216 3712 c-3 -5 -17 -9 -32 -9 -14 0 -30 -6 -34 -13 -4 -7 -13 -9
-19 -6 -6 4 -11 0 -12 -11 0 -10 -3 -13 -5 -7 -6 14 -44 6 -44 -9 0 -6 -3 -7
-6 -4 -11 10 -84 -35 -77 -47 4 -7 2 -7 -6 0 -13 12 -31 5 -96 -36 -16 -11
-45 -27 -62 -37 -18 -9 -33 -20 -33 -25 0 -4 -13 -14 -30 -23 -51 -26 -204
-160 -264 -232 -94 -111 -136 -166 -136 -179 0 -4 -6 -15 -14 -23 -26 -29
-114 -214 -140 -296 -53 -167 -61 -219 -61 -410 0 -186 9 -249 56 -400 29 -91
132 -291 191 -370 196 -263 491 -452 833 -534 285 -69 509 -65 815 16 135 35
339 123 361 156 3 5 9 8 13 8 11 -2 64 28 72 41 5 9 3 9 -9 -1 -11 -9 -17 -10
-17 -2 0 6 -3 10 -7 9 -5 -1 -18 4 -31 11 -17 9 -27 9 -36 1 -9 -7 -22 -7 -39
-1 -16 6 -36 6 -54 1 -212 -69 -301 -89 -503 -111 -151 -16 -398 5 -480 41
-24 10 -24 10 5 5 22 -4 26 -3 15 5 -8 5 -24 10 -35 11 -17 1 -17 2 -2 6 21 6
21 4 -2 81 -11 34 -16 60 -12 58 4 -3 7 4 7 14 0 10 -4 16 -8 14 -4 -3 -8 6
-8 19 0 14 -6 30 -14 37 -8 6 -13 17 -10 24 3 7 -8 21 -23 31 -56 36 -219 213
-260 282 -42 72 -53 99 -42 105 4 2 25 -20 47 -49 45 -56 157 -172 210 -216
185 -156 473 -258 722 -256 88 0 113 6 117 25 2 12 -23 16 -172 30 -76 7 -123
23 -70 24 21 0 26 3 16 9 -10 6 -12 20 -8 45 7 42 -9 56 -70 57 -21 0 -47 4
-58 8 -12 5 21 10 89 13 86 4 112 8 121 21 7 10 18 17 26 17 12 0 12 2 0 9
-11 7 -11 9 0 14 10 4 9 6 -3 6 -9 1 -19 -3 -22 -8 -3 -4 -64 -9 -135 -9 -428
-1 -771 232 -868 588 -24 88 -23 261 1 355 85 333 391 578 776 624 199 24 420
-28 545 -129 81 -65 117 -83 170 -84 83 -1 150 48 269 197 43 54 59 86 36 72
-6 -4 -18 -1 -26 6 -13 10 -13 8 -4 -17 9 -25 8 -27 -4 -11 -13 16 -32 25 -23
10 3 -5 -18 -8 -45 -9 -30 -1 -53 -7 -58 -14 -7 -11 -14 -10 -35 4 -15 10 -49
19 -76 20 -27 1 -55 8 -62 15 -10 10 -4 11 27 5 35 -6 38 -5 26 8 -8 9 -31 14
-56 14 -23 -1 -40 2 -38 5 2 4 -3 9 -10 12 -8 3 -16 1 -18 -4 -2 -6 -14 -1
-27 10 -13 12 -34 21 -47 21 -13 0 -27 7 -32 15 -4 9 -21 18 -36 21 -16 3 -45
13 -65 23 -73 37 -186 70 -231 67 -51 -3 -105 16 -105 36 0 8 -13 13 -35 13
-19 -1 -41 5 -48 12 -7 7 -26 13 -42 13 -16 0 -30 7 -34 16 -9 23 -8 24 16 33
17 6 10 8 -25 7 -26 -1 -43 -2 -38 -4 12 -4 2 -32 -11 -32 -5 0 -7 4 -4 9 3 5
-1 12 -10 15 -8 3 -12 2 -9 -3 7 -13 -30 -24 -55 -16 -13 4 -25 -1 -37 -14
-19 -22 -39 -29 -27 -9 5 8 2 9 -12 4 -10 -5 -36 -12 -56 -17 -53 -13 -195
-76 -256 -115 -29 -19 -55 -34 -58 -34 -10 0 -146 -100 -208 -154 -80 -68
-174 -180 -252 -298 -35 -53 -64 -99 -64 -102 0 -2 -15 -38 -34 -79 -32 -68
-52 -131 -86 -262 -8 -27 -15 -115 -16 -194 -2 -79 -5 -145 -7 -147 -2 -2 -14
35 -25 84 -67 270 35 635 252 907 94 119 230 242 344 315 30 18 59 38 65 44 7
6 25 17 40 24 17 7 25 17 21 24 -4 7 -3 8 4 4 13 -8 155 57 146 67 -3 3 4 3
17 0 17 -5 20 -3 14 7 -6 10 -4 12 9 7 10 -4 15 -3 11 3 -3 6 -14 10 -23 10
-10 1 -5 6 13 15 24 11 26 14 10 14 -18 1 -18 3 5 21 14 10 22 21 18 25 -3 3
-9 2 -12 -3z m-36 -46 c0 -2 -7 -7 -16 -10 -8 -3 -12 -2 -9 4 6 10 25 14 25 6z
m1223 -433 c-7 -2 -19 -2 -25 0 -7 3 -2 5 12 5 14 0 19 -2 13 -5z m-28 -2012
c3 -5 2 -12 -3 -15 -5 -3 -9 1 -9 9 0 17 3 19 12 6z"/>
<path d="M2237 3679 c7 -7 15 -10 18 -7 3 3 -2 9 -12 12 -14 6 -15 5 -6 -5z"/>
<path d="M3147 2504 c-3 -4 -1 -16 5 -28 11 -20 10 -20 -7 -6 -10 8 -16 10
-12 4 16 -27 -17 -72 -77 -107 -106 -61 -275 -147 -291 -147 -8 0 -15 -4 -15
-8 0 -10 -62 -33 -103 -37 -18 -2 -57 -10 -87 -18 -33 -8 -64 -11 -77 -6 -12
4 -36 4 -52 -1 -30 -8 -31 -7 -32 23 0 27 -2 29 -9 12 -7 -16 -9 -17 -9 -3 -1
9 -6 18 -12 20 -6 2 -13 24 -16 48 -9 76 -13 58 -13 -54 0 -69 5 -118 14 -141
15 -35 59 -65 96 -65 20 0 494 235 635 315 33 18 70 46 82 62 30 36 31 96 3
116 -11 8 -17 17 -13 20 3 4 4 7 1 7 -2 0 -8 -3 -11 -6z"/>
<path d="M703 2380 c-17 -46 -19 -58 -8 -75 6 -11 11 -28 9 -38 -1 -10 2 -32
7 -50 6 -18 12 -46 14 -63 3 -17 22 -66 44 -110 32 -67 43 -80 65 -82 14 -1
26 3 26 9 0 5 -5 7 -12 3 -7 -4 -8 -3 -4 5 10 16 -22 64 -36 55 -7 -4 -8 -3
-4 4 4 7 -7 56 -25 109 -17 54 -36 141 -43 193 l-11 95 -22 -55z"/>
<path d="M675 2260 c-3 -6 1 -7 9 -4 18 7 21 14 7 14 -6 0 -13 -4 -16 -10z"/>
<path d="M3123 1746 c-13 -6 -23 -14 -23 -19 0 -7 17 0 50 23 20 13 1 11 -27
-4z"/>
<path d="M3070 1720 c-9 -6 -10 -10 -3 -10 6 0 15 5 18 10 8 12 4 12 -15 0z"/>
<path d="M3020 1690 c-9 -6 -10 -10 -3 -10 6 0 15 5 18 10 8 12 4 12 -15 0z"/>
<path d="M2945 1670 c-13 -6 -15 -9 -5 -9 8 0 22 4 30 9 18 12 2 12 -25 0z"/>
<path d="M2888 1613 c7 -3 16 -2 19 1 4 3 -2 6 -13 5 -11 0 -14 -3 -6 -6z"/>
<path d="M2791 1494 c0 -11 3 -14 6 -6 3 7 2 16 -1 19 -3 4 -6 -2 -5 -13z"/>
<path d="M2255 1480 c-3 -5 -1 -10 4 -10 6 0 11 5 11 10 0 6 -2 10 -4 10 -3 0
-8 -4 -11 -10z"/>
<path d="M2275 1460 c-3 -6 1 -10 11 -10 13 0 14 -3 4 -15 -9 -10 -9 -15 -1
-15 6 0 11 5 11 11 0 6 7 9 15 5 22 -8 18 0 -9 18 -15 10 -27 12 -31 6z"/>
<path d="M3520 1300 c-9 -6 -10 -10 -3 -10 6 0 15 5 18 10 8 12 4 12 -15 0z"/>
<path d="M3497 1279 c7 -7 15 -10 18 -7 3 3 -2 9 -12 12 -14 6 -15 5 -6 -5z"/>
<path d="M2321 1254 c0 -11 3 -14 6 -6 3 7 2 16 -1 19 -3 4 -6 -2 -5 -13z"/>
</g>
</svg>
